<?xml version="1.0" standalone="no"?>
<!DOCTYPE svg PUBLIC "-//W3C//DTD SVG 20010904//EN"
 "http://www.w3.org/TR/2001/REC-SVG-20010904/DTD/svg10.dtd">
<svg version="1.0" xmlns="http://www.w3.org/2000/svg"
 width="193.000000pt" height="259.000000pt" viewBox="0 0 193.000000 259.000000"
 preserveAspectRatio="xMidYMid meet">
<metadata>
Created by potrace 1.10, written by Peter Selinger 2001-2011
</metadata>
<g transform="translate(0.000000,259.000000) scale(0.100000,-0.100000)"
fill="#000000" stroke="none">
<path d="M782 2419 c-109 -14 -205 -51 -255 -98 -75 -69 -98 -192 -90 -483 5
-164 3 -198 -8 -202 -8 -2 -26 -7 -42 -10 -15 -4 -37 -16 -49 -28 -20 -20 -21
-21 -2 -35 12 -9 32 -12 59 -8 l40 7 -3 -201 c-5 -248 14 -747 32 -861 19
-119 35 -153 90 -185 79 -46 146 -59 311 -60 164 0 230 11 308 53 62 33 83 74
102 200 19 123 38 619 33 865 l-3 189 40 -7 c27 -4 47 -1 59 8 19 14 18 15 -2
35 -12 12 -34 24 -49 28 -16 3 -34 7 -41 10 -10 3 -12 54 -11 236 2 292 -11
362 -80 440 -69 79 -276 129 -439 107z m255 -57 c13 -7 28 -23 35 -37 7 -13
52 -64 101 -114 l87 -90 -1 -228 c-1 -125 -5 -209 -8 -187 -9 55 -50 107 -104
133 -138 67 -402 68 -548 2 -46 -21 -108 -80 -110 -104 0 -7 -4 -3 -9 8 -10
24 -12 294 -2 348 5 29 27 58 97 131 50 52 97 104 105 116 8 12 31 25 50 30
50 13 280 7 307 -8z m-397 -16 c0 -7 -21 -30 -46 -51 -25 -21 -57 -55 -71 -76
-14 -22 -32 -39 -39 -39 -36 0 48 123 110 161 37 23 46 24 46 5z m498 0 c38
-20 86 -73 111 -123 28 -57 4 -59 -32 -4 -14 21 -46 55 -71 76 -25 21 -46 44
-46 51 0 17 4 17 38 0z m-107 -510 c87 -19 145 -49 164 -86 20 -39 20 -42 -16
-178 l-31 -118 -52 17 c-120 41 -332 41 -452 0 l-52 -17 -31 118 c-17 65 -31
131 -31 146 0 50 65 92 180 118 75 17 241 17 321 0z m-502 -308 c29 -92 71
-332 59 -343 -3 -3 -26 3 -51 12 l-47 17 0 137 c0 75 -3 172 -6 215 -8 101 4
90 45 -38z m723 -103 l-4 -211 -46 -17 c-26 -9 -48 -14 -51 -12 -11 11 31 250
59 340 32 99 40 119 44 113 1 -2 0 -98 -2 -213z m-173 10 l54 -17 -7 -61 c-19
-174 -15 -601 6 -698 2 -8 -6 -14 -20 -15 -12 -1 -50 -14 -85 -30 -55 -26 -73
-29 -157 -29 -84 0 -102 3 -155 29 -33 15 -73 28 -88 28 -23 -1 -27 3 -22 16
19 48 29 502 14 632 -5 47 -12 93 -15 103 -7 21 38 42 118 57 78 13 293 5 357
-15z m-489 -425 l0 -136 -40 -39 c-22 -21 -41 -37 -44 -34 -2 2 -7 88 -11 190
l-7 186 51 -15 51 -16 0 -136z m655 -17 c-4 -104 -9 -190 -11 -192 -3 -3 -22
13 -44 34 l-40 39 0 136 0 136 48 16 c26 8 49 16 50 17 2 0 1 -83 -3 -186z
m-655 -170 c0 -5 -7 -49 -15 -100 -27 -166 -49 -184 -61 -51 -7 76 -7 76 27
117 32 39 49 50 49 34z m609 -34 c34 -41 34 -41 27 -117 -12 -133 -34 -115
-61 51 -8 51 -15 95 -15 100 0 16 17 5 49 -34z m-526 -199 c111 -66 283 -66
394 0 19 11 38 20 42 20 16 0 61 -99 61 -133 0 -79 -90 -112 -305 -111 -210 0
-295 32 -295 111 0 34 45 133 61 133 4 0 23 -9 42 -20z m-140 -93 c-5 -50 -3
-56 26 -90 47 -53 122 -78 256 -84 194 -9 311 19 370 89 24 29 27 38 22 85 -5
45 -3 55 14 63 16 9 19 7 19 -9 0 -28 -29 -151 -41 -173 -27 -50 -155 -82
-329 -82 -178 0 -302 32 -330 85 -16 30 -40 125 -40 160 0 26 2 29 19 19 17
-8 19 -18 14 -63z"/>
</g>
</svg>
