<svg xmlns="http://www.w3.org/2000/svg" width="570" height="425"><path d="M0 0h570v425H0V0Z"/><path fill="#42ABAE" d="m344.75 23.6875 2.65928268-.00482559c23.94552411-.03673582 47.76700549.3480462 71.65321732 2.12982559l3.42443848.25082397c29.81198797 2.25287337 52.91405493 8.06224347 74.97009277 29.44497681 1.56304021 1.51110375 3.1459931 2.99921472 4.73046875 4.48779297 9.41373696 8.98551757 17.38793705 19.06633149 24.7265625 29.8046875 4.08713742 5.82870091 8.86835786 8.6204641 14.98828125 12.17578125C551.44624142 108.21078569 554.93636595 118.40518464 557.625 129c3.49192027 16.77648251 3.71954095 33.49373659 3.69067383 50.57666016-.003168 3.91613427.02041006 7.83151663.04565429 11.74755859.10545548 42.06973583.10545548 42.06973583-9.25585937 52.859375C548.89284454 247.14588361 546.36162198 249.20166741 542 250l.98828125-2.39453125c6.10825227-15.76613786 7.28948734-31.1787004 7.38671875-47.98046875l.02407837-2.19787598c.09775694-11.62108212-.1233619-24.23020008-7.07485962-34.08337402-1.33897582-1.56783625-1.33897582-1.56783625-3.88671875-2.15625-3.48869335 1.16289778-4.39483995 2.74262895-6.4375 5.8125-1.24017244 3.18790525-2.12303626 6.44619401-3 9.75l-.78125 2.82299805C527.65778177 185.28858078 526.28474272 191.02979823 525 196.8125c-2.79686191 12.40098637-6.28409418 25.95770855-16.53515625 34.234375-4.50639998 2.54024802-8.86334886 3.44183883-13.90234375 4.453125-7.4901172 1.5615629-14.86837426 3.3533283-22.25415039 5.35351562-4.94202687 1.3272644-9.90544815 2.56629646-14.87084961 3.80273438l-2.81410217.7010498c-3.83862573.955099-7.67780161 1.9079766-11.51695252 2.86096192C429.04102819 251.71196061 414.98886237 255.23001911 401.0625 259.25l-3.52734375 1.015625L395 261l.65625-2.83984375c4.87467512-22.85437138 4.67108501-49.05861819-6.5637207-70.05102539C388 186 388 186 387 183c-3.37536542-2.33679144-6.94690225-2.930119-11-3-5.02003014 3.43475747-7.55250239 6.99673986-10.125 12.4375l-1.02978516 2.13037109C357.03729471 211.22951535 355.60747279 228.64490964 355.6875 246.75l.00250244 2.39709473c.03159265 13.14453835 1.16171492 25.27261105 4.36322022 38.06872558L361 291c-4.87464091.07443657-9.74894728.12873667-14.62402344.16479492-1.65663419.01503973-3.31322887.03547685-4.96972656.06152344-2.3881203.03659679-4.77571188.05345603-7.1640625.06665039l-2.22610474.04692078c-5.54247015.00179342-9.51347574-1.24326098-13.77389526-4.81254578-2.91494168-3.38966075-4.81830002-6.58556036-6.421875-10.7734375l-1.04638672-2.70483398L310 271l-2.43832397.02259827c-7.62035811.06257979-15.23903238.08148646-22.85954857.05255985-3.91704751-.01336106-7.83260952-.01042498-11.74949074.03104305-3.78738629.03947603-7.57244365.03446112-11.35985184-.00012398-1.43754346-.00555622-2.87524061.00434528-4.3125534.03068924-7.56878323.1284191-13.08088657-.1939119-18.92329789-5.5217762l-2.21084594-2.39796447c-7.15748932-7.3940774-18.0964263-9.42228811-27.99227906-9.70359803l-2.24078369-.08468627c-2.42131792-.08962435-4.84286279-.16736415-7.2645874-.24514771-1.70383595-.06119363-3.40764236-.12321493-5.11141968-.1860199-4.47580838-.16310244-8.9518945-.31646548-13.4281311-.46730041-7.14098649-.24232675-14.28144035-.49989586-21.42191696-.75672722-2.47113979-.08756443-4.94238566-.17122462-7.41368485-.2541523-8.01493297-.2757602-15.99597041-.67768905-23.99407959-1.28729248-5.3904005-.38153138-10.78548849-.57554896-16.18545532-.76725769l-3.53869629-.13023376c-2.44685565-.08938673-4.89375606-.1775558-7.34069824-.26454163-3.70571244-.13225988-7.41120048-.2698552-11.11669922-.40795898-5.73465622-.21101195-11.46965144-.39922627-17.20562744-.57046509-2.50516297-.07938506-5.00847083-.1784921-7.51263428-.28378296-8.40936545-.25377292-8.40936545-.25377292-15.50439453 4.00463867l-2.5703125 2.14453125c-1.38365914 1.22653175-2.74529899 2.47965497-4.05859375 3.78125C38.69150951 259.73503031 35.1921035 259.43355635 31.1875 259.375l-2.36914062.03515625c-5.94239034-.02978642-10.94266248-.87619015-15.56054688-4.9453125-10.7708955-14.52213842-6.62396035-48.49850658-4.90771484-66.04394531C11.63446436 166.3946472 22.79065115 146.92613121 40 133c18.46759684-13.66929855 39.01545796-22.1102032 61.875-24 13.67777404-1.15732209 20.85712315-4.96508838 30.59277344-14.51220703C134.92593305 92.10091842 137.46456939 89.80414704 140 87.5c2.99288686-2.73295269 5.97737271-5.47320693 8.9296875-8.25C156.27795712 72.36725926 163.96017187 66.05864802 172 60l1.7265625-1.30908203C202.16365045 37.27383032 231.66986337 27.59618074 267.1875 26.2109375c3.68762664-.1379883 3.68762664-.1379883 6.79980469-.69018555 5.3146385-.77809361 10.6663316-.8830938 16.02832031-1.0637207l3.67974854-.12553406C310.70958917 23.80025966 327.72856758 23.71091584 344.75 23.6875Z"/><path d="m40.02306557 296.86857224 2.4811887-.0062201c2.76134304-.0056834 5.5226364-.0042111 8.28398426-.00279403 1.99272925-.00258287 3.98545799-.00559581 5.978186-.0090034 5.49002079-.0080825 10.9800285-.00986027 16.47005452-.01059747 5.91565355-.0018484 11.83130029-.00939468 17.7469499-.01613521 13.6172558-.01430201 27.2345106-.02011118 40.85177235-.02469195 6.72921707-.00233575 13.4584333-.0059384 20.1876497-.00969538 23.03494703-.0128361 46.06989357-.02355498 69.10484409-.0270026 1.44612903-.00022163 2.89225806-.00044341 4.33838709-.00066535a20336324.6275683 20336324.6275683 0 0 1 4.34887222-.00066145c2.9081988-.00044255 5.81639759-.00088966 8.72459638-.00133967.72106473-.0001094 1.44212946-.00021878 2.18504463-.0003315 23.37826007-.00363027 46.75648913-.01954891 70.13473732-.04285886 24.7168395-.02459958 49.43366127-.03831608 74.15051336-.03951108 2.71368143-.00017146 5.42736285-.0003869 8.14104426-.00063444l2.02480182-.000169c10.08482672-.00107914 20.1696247-.01038611 30.25444165-.02401618 11.47304298-.0153906 22.9460328-.0205276 34.41908415-.0122619 5.85432703.00391025 11.70854699.00295855 17.56286089-.01105734 5.36048473-.0127163 10.7207817-.01156126 16.08126609.0005907 1.93813615.00196094 3.87628549-.00113967 5.81440309-.00984435 23.63698959-.09943026 23.63698959-.09943026 33.58287696 8.22407832 9.76254482 9.97949026 11.42154646 19.9549446 11.48046875 33.32421875.00902848 1.27120194.01805695 2.54240387.027359 3.85212708.01447997 2.68558418.02417797 5.37074376.02708436 8.05632019.005365 3.40809673.04299117 6.81499762.08874417 10.22275829.03726213 3.28952424.03830175 6.57908786.04431247 9.86879444l.05918885 3.65653992c-.05423457 10.33094326-2.65466056 20.07283699-9.96543885 27.71846008-11.49608026 10.13720553-24.55228002 9.89290015-39.04821777 9.83798218-1.98553522.003459-3.97106851.0082252-5.95659781.01418174-5.44230986.01250613-10.8844616.00634129-16.32677197-.00295866-5.87465518-.0067917-11.7492833.00369135-17.62393308.01193976-11.50300464.0133382-23.00595056.01045918-34.5089575.00176208-9.3489357-.00688238-18.69786024-.00777296-28.04679811-.00442855l-2.01422472.0006944c-2.69833611.00093405-5.39667222.00188926-8.09500831.0028793-25.30287747.00917318-50.60572293.00086268-75.90859546-.0152907-22.47094708-.01423638-44.94184316-.01296248-67.4127898.00138299-25.2571467.01607035-50.5142651.02243028-75.7714162.0131632-2.69336682-.00096212-5.38673367-.00190064-8.08010052-.0028292l-2.00956408-.00071887c-10.00616867-.00340975-20.0123166.00059216-30.01848158.00815754-11.37958127.00841467-22.75910045.00613548-34.13867461-.00984223-5.80575704-.00788308-11.61141057-.01097356-17.41716683-.00105254-5.31584494.00894644-10.63149054.00401465-15.94731742-.01193266-1.9218024-.00334798-3.84362166-.00165336-5.76541317.00562736-14.55442525.05090496-25.14914144-.69757438-36.24981481-10.95027964-8.1890856-8.53712174-8.93036025-19.37492142-8.9140625-30.65625-.00780173-1.34559137-.01647663-2.69117792-.02597046-4.03675842-.01481163-2.80293332-.01442502-5.60536232-.0038147-8.40830993.01158755-3.55849444-.02231365-7.11490601-.06868934-10.67305661-.02973148-2.77396664-.03118434-5.54744588-.02498054-8.3215437-.00149907-1.93849334-.02902043-3.87691214-.05736161-5.8151989C5.32917475 321.74098767 8.5472148 313.47900934 15.875 305.5c7.29749372-6.72431891 14.41280842-8.65400071 24.14806557-8.63142775Z"/><path fill="#43A7AC" d="m40.02306557 296.86857224 2.4811887-.0062201c2.76134304-.0056834 5.5226364-.0042111 8.28398426-.00279403 1.99272925-.00258287 3.98545799-.00559581 5.978186-.0090034 5.49002079-.0080825 10.9800285-.00986027 16.47005452-.01059747 5.91565355-.0018484 11.83130029-.00939468 17.7469499-.01613521 13.6172558-.01430201 27.2345106-.02011118 40.85177235-.02469195 6.72921707-.00233575 13.4584333-.0059384 20.1876497-.00969538 23.03494703-.0128361 46.06989357-.02355498 69.10484409-.0270026 1.44612903-.00022163 2.89225806-.00044341 4.33838709-.00066535a20336324.6275683 20336324.6275683 0 0 1 4.34887222-.00066145c2.9081988-.00044255 5.81639759-.00088966 8.72459638-.00133967.72106473-.0001094 1.44212946-.00021878 2.18504463-.0003315 23.37826007-.00363027 46.75648913-.01954891 70.13473732-.04285886 24.7168395-.02459958 49.43366127-.03831608 74.15051336-.03951108 2.71368143-.00017146 5.42736285-.0003869 8.14104426-.00063444l2.02480182-.000169c10.08482672-.00107914 20.1696247-.01038611 30.25444165-.02401618 11.47304298-.0153906 22.9460328-.0205276 34.41908415-.0122619 5.85432703.00391025 11.70854699.00295855 17.56286089-.01105734 5.36048473-.0127163 10.7207817-.01156126 16.08126609.0005907 1.93813615.00196094 3.87628549-.00113967 5.81440309-.00984435 23.63698959-.09943026 23.63698959-.09943026 33.58287696 8.22407832 9.76254482 9.97949026 11.42154646 19.9549446 11.48046875 33.32421875.00902848 1.27120194.01805695 2.54240387.027359 3.85212708.01447997 2.68558418.02417797 5.37074376.02708436 8.05632019.005365 3.40809673.04299117 6.81499762.08874417 10.22275829.03726213 3.28952424.03830175 6.57908786.04431247 9.86879444l.05918885 3.65653992c-.05423457 10.33094326-2.65466056 20.07283699-9.96543885 27.71846008-11.49608026 10.13720553-24.55228002 9.89290015-39.04821777 9.83798218-1.98553522.003459-3.97106851.0082252-5.95659781.01418174-5.44230986.01250613-10.8844616.00634129-16.32677197-.00295866-5.87465518-.0067917-11.7492833.00369135-17.62393308.01193976-11.50300464.0133382-23.00595056.01045918-34.5089575.00176208-9.3489357-.00688238-18.69786024-.00777296-28.04679811-.00442855l-2.01422472.0006944c-2.69833611.00093405-5.39667222.00188926-8.09500831.0028793-25.30287747.00917318-50.60572293.00086268-75.90859546-.0152907-22.47094708-.01423638-44.94184316-.01296248-67.4127898.00138299-25.2571467.01607035-50.5142651.02243028-75.7714162.0131632-2.69336682-.00096212-5.38673367-.00190064-8.08010052-.0028292l-2.00956408-.00071887c-10.00616867-.00340975-20.0123166.00059216-30.01848158.00815754-11.37958127.00841467-22.75910045.00613548-34.13867461-.00984223-5.80575704-.00788308-11.61141057-.01097356-17.41716683-.00105254-5.31584494.00894644-10.63149054.00401465-15.94731742-.01193266-1.9218024-.00334798-3.84362166-.00165336-5.76541317.00562736-14.55442525.05090496-25.14914144-.69757438-36.24981481-10.95027964-8.1890856-8.53712174-8.93036025-19.37492142-8.9140625-30.65625-.00780173-1.34559137-.01647663-2.69117792-.02597046-4.03675842-.01481163-2.80293332-.01442502-5.60536232-.0038147-8.40830993.01158755-3.55849444-.02231365-7.11490601-.06868934-10.67305661-.02973148-2.77396664-.03118434-5.54744588-.02498054-8.3215437-.00149907-1.93849334-.02902043-3.87691214-.05736161-5.8151989C5.32917475 321.74098767 8.5472148 313.47900934 15.875 305.5c7.29749372-6.72431891 14.41280842-8.65400071 24.14806557-8.63142775ZM23 318c-4.7587974 6.4388914-4.5985916 12.25449436-4.56640625 20.08984375l-.01878357 3.8136139c-.00708937 2.65571539-.00589871 5.30990829.0087738 7.96543884.0171774 3.38394806-.00630965 6.76619628-.0414896 10.1499548-.02738547 3.25284936-.01723028 6.50556047-.01100063 9.75849246l-.0401764 3.65281678C18.4098017 380.59285146 19.25100218 385.48572513 24 391c2.01713443 2.05785838 2.01713443 2.05785838 4.125 3.4375l2.0078125 1.43359375c4.09950813 2.4785729 8.06436054 2.27323108 12.68911839 2.26592064l2.4521108.00803584c2.73471919.00771158 5.46939363.00825289 8.20412299.00884992 1.97124249.0040134 3.94248417.00845142 5.91372484.01327956 5.43526907.01198505 10.87052925.01761842 16.30580896.02218115 5.85500489.0059488 11.70999912.01756047 17.56499684.0282905 13.48048862.02338063 26.9609797.03793385 40.4414825.05022943 4.66405669.00425445 9.32811296.00883346 13.99216918.0135833 24.79781633.02523572 49.5956332.04730955 74.39345956.05972816 5.74602479.00292134 11.49204956.00588886 17.2380743.0089054l2.16325273.00112398c23.14245704.01215394 46.284838.04309504 69.42725932.08479756 23.79077532.04279264 47.58151046.06941474 71.3723253.07464777 3.3607146.00074045 6.72142913.00165113 10.08214366.00265778l2.00428893.00057762c9.98284844.00329523 19.96558434.02068197 29.94839737.04531319 11.35780682.02797752 22.71546904.03900988 34.07330765.02780454 5.79566287-.0051925 11.59102282-.00226106 17.38664185.02246554 5.30697044.02245292 10.61341966.021783 15.920399.00279613 1.91865604-.00280553 3.83734713.00282913 5.7559467.01781294 15.17620277.20527473 15.17620277.20527473 28.16172284-7.07278805 6.10449573-6.62948036 5.70784342-14.39352 5.74752754-22.8580879.00902848-1.19094772.01805695-2.38189544.027359-3.6089325.0144837-2.51566562.02338456-5.03136875.02708436-7.54707335.01188967-3.83211286.06109264-7.6626117.11157227-11.49438477.00946573-2.44986197.01670005-4.8997338.02148437-7.34960938l.05918885-3.4478302c-.04469862-7.95090977-1.5708022-13.91784747-7.09606934-19.83435058-5.47740357-4.87565647-10.49843932-5.71294982-17.61373711-5.67151356l-2.46694368-.0097166c-2.73935688-.00832905-5.4784968-.00236555-8.21785742.00349578-1.97923207-.00301935-3.95846298-.00690775-5.93769181-.01159256-5.44796438-.01031656-10.89586323-.0080889-16.34383308-.00381941-5.87195546.0024606-11.74389486-.00653864-17.6158445-.0140375-11.5073493-.01276762-23.01467527-.01453811-34.52203045-.01219973-9.35098698.00183184-18.70196878.00007535-28.05295505-.00422444a2263671.36047843 2263671.36047843 0 0 0-4.02871177-.0018036c-2.02357036-.00090724-4.04714073-.00181591-6.0707111-.00273235-18.81735183-.00843118-37.6347011-.0127641-56.45205456-.00859328l-2.15020096.00047386c-3.5964538.0008058-7.19290757.00165157-10.78936135.0025133l-2.16448775.00051845a1673611.94834255 1673611.94834255 0 0 0-4.33335026.00104559c-22.47681533.00535749-44.95359143-.00257332-67.43039944-.02103356-25.24682401-.02071092-50.49362372-.03144444-75.7404567-.02742451-2.69142496.00039535-5.38284993.0007569-8.0742749.00109738l-2.00820535.00027495c-10.00910365.0011665-20.01818237-.00552256-30.02727896-.01608687-11.38198005-.0118915-22.76390237-.01334381-34.1458832-.00120983-5.8094039.0059044-11.61870207.00694506-17.42809904-.0050024-5.31588297-.01080565-10.63157127-.00781906-15.94744493.00626168-1.92526507.00266165-3.85054514.00023469-5.77579555-.00773586-2.61370233-.01007146-5.22672343-.00171375-7.84039821.01127699-.75026747-.00730934-1.50053495-.0146187-2.27353781-.02214953C33.36386902 309.68270018 28.01120866 312.04072484 23 318Z"/><path d="M413 41c-.68190132 3.444708-2.03334488 6.16329429-3.703125 9.2421875l-1.703125 3.18847656L405.75 56.875c-6.09989743 11.47614538-11.41953633 23.17066919-16.30957031 35.21044922C386.6929948 98.69875171 384.19637987 104.00570157 379 109c-4.03774492 1.34591497-7.93101704 1.14102882-12.14146423 1.13371277l-2.87007624.00686532c-3.18749029.00635218-6.3749382.00550986-9.56243414.00468558-2.27963822.00299071-4.55927593.00639303-6.83891296.01017761-6.20237517.00885265-12.40473655.01117863-18.60711742.01181579-5.17174307.00094804-10.34348292.00462509-15.51522475.0081721-11.50027922.00768337-23.00055055.01066818-34.50083196.00999464l-2.09162385-.00012108-2.09417236-.00012388c-11.2036118-.00040658-22.40719001.00916573-33.61079209.02326225-11.49912418.0143544-22.99822763.02108745-34.49736143.02040622-6.45778529-.00025545-12.91553257.00262181-19.37331003.01317806-6.07135502.00965327-12.14263548.00977925-18.21399307.00248336-2.23171535-.00104926-4.46343528.00133717-6.69514275.00736046-3.03978707.00767462-6.0793137.00310524-9.11909484-.00463104l-2.69394631.01558655-2.46746021-.01393574-2.12610859.00065869C143.65784291 109.95689682 142.02681983 109.14454205 140 108c-.39453125-2.078125-.39453125-2.078125 0-5 1.82175275-2.53556641 4.04854831-4.61034827 6.3125-6.75l1.93530273-1.87817383c4.47965791-4.29731697 9.12361053-8.33069588 13.99829102-12.17651367 2.48501028-1.98095855 4.88787132-4.03394197 7.28222656-6.12280273C184.14498847 63.39355588 201.79276062 49.31623357 221 45l3.02734375-.796875C280.51150458 29.40134243 355.51252078 34.22599767 413 41Z"/><path d="m448.1875 42.5625 2.27587891.02514648c14.58571148.43985673 25.84006066 8.53814558 36.20068359 18.22875977 2.0826559 1.94683052 4.21617998 3.78816994 6.3984375 5.62109375 15.26954733 13.31430041 15.26954733 13.31430041 16.375 22-.59919518 4.87916075-2.2148724 7.64841197-5.95703125 10.87109375C492.68604966 106.85763194 477.98144364 109.18811785 465.25 111.5625l-2.33718872.44485474c-17.28681647 3.25296289-34.70331177 4.92262173-52.22140503 6.36373901l-2.40055847.19772339C404.18195697 118.88860099 400.12533 119.066002 396 119c-.25336456-4.70780534.5064305-8.04070744 2.23828125-12.41015625l1.46972656-3.71972656c.53349999-1.31141455 1.06835963-2.62227669 1.60449219-3.93261719l.81530762-2.01452637c17.01851916-41.93768361 17.01851916-41.93768361 34.57141113-52.55578613 3.90087013-1.61574502 7.33265687-1.86394691 11.48828125-1.8046875Z"/><path fill="#54BB48" d="m259.6875 326.40625 3.44018555-.00012207c2.39727319.0053551 4.79454594.02293711 7.19165039.05187988 3.6675385.04184244 7.33323968.04106838 11.00097656.03417969 2.33074192.01049306 4.66147437.02343179 6.9921875.0390625l3.32104492.00061035 3.10473633.04821777 2.7199707.0255127C300.57935716 327.08990025 302.45142127 328.15610803 305 330c2.03172266 3.04758399 2.2544052 3.68442721 2.29052734 7.11669922l.03866578 2.49850464.00674438 2.68948364.02017212 2.77615356c.01012583 1.93836459.01481704 3.87676403.01449585 5.81515503.00436802 2.96103624.04067362 5.9205757.07861328 8.88134766.00586925 1.88410949.00983792 3.76822606.01171875 5.65234375l.04354858 2.67721558c-.03080815 4.15970631-.15102202 6.32949445-2.40829467 9.92874145-3.13615734 2.93891473-4.90843935 3.10076215-9.10913086 3.1730957l-3.16609192.05845643c-4.78037672.05762356-9.56060122.10700994-14.3412323.13783264-2.52292551.02160233-5.04577563.05573092-7.56835938.10253906-3.6335606.06683449-7.2655705.09443393-10.8996582.11352539l-3.41584778.08433533c-7.38016382-.01942232-7.38016382-.01942232-10.4261322-1.73822022-3.45872076-3.49266805-3.77789951-7.43714019-3.86447144-12.07476806l.03067017-2.70884705-.01449585-2.83055115c-.00339132-1.96755159.00575721-3.93516012.02670288-5.90260315.02680739-3.00754492.00021121-6.01136838-.03173828-9.01879883.00330364-1.91602383.00970894-3.83204536.01953125-5.74804687l-.03067017-2.71498108c.0767713-4.09725727.39240057-6.45642509 2.50576783-10.0367279 4.85022001-2.93827829 9.30825605-2.60893481 14.87646484-2.52563477Z"/><path fill="#E83C23" d="m56.03466797 326.70947266 3.10519409-.03866577 3.35232544-.0067444c1.13809113-.0066568 2.27618225-.01331358 3.44876099-.02017211 2.40915305-.01013176 4.8183342-.01481685 7.22750854-.01449584 3.6852042-.00436924 7.36920732-.04067447 11.05419922-.0786133 2.33983965-.00586876 4.679685-.00983775 7.01953125-.01171874l3.34005737-.04354858c7.65322775.0456755 7.65322775.0456755 11.5901184 2.40829468 3.53350779 4.05272479 3.00565358 7.93971212 3.03076173 13.08447265l.01727295 2.71318055c.00945595 1.89727087.01598634 3.79455822.01983643 5.69184875.009692 2.89718476.04070393 5.79365607.07226562 8.69067383.00653143 1.84309474.01178135 3.68619456.015625 5.52929687l.03741455 2.62043763C109.34806207 371.97431107 109.12514933 375.17869483 106 379c-3.26323398 2.17548932-4.24994543 2.26175426-8.03466797 2.30639649l-3.1051941.04844665-3.35232543.0162506-3.448761.02735902c-2.40914268.01451664-4.81832493.02339273-7.22750853.02708435-3.68540915.01189468-7.36914364.06106843-11.05419922.11157227-2.33983557.00946414-4.67968143.0166992-7.01953125.02148437l-3.34005737.05918885c-8.52136823-.05023244-8.52136823-.05023244-11.59011841-3.09019471L46 375.99999999l-1-1c-.12606495-2.97131265-.18870342-5.91807171-.203125-8.890625l-.01727295-2.71746825c-.00946724-1.90324721-.0159908-3.80651095-.01983642-5.70977783-.0096788-2.90605575-.04067452-5.8113964-.07226563-8.71728516-.0065325-1.84765204-.011782-3.69530915-.015625-5.54296875l-.03741455-2.62994384C44.65189773 336.04349003 44.86724085 332.82648086 48 329c3.26815564-2.17877042 4.24488439-2.25849766 8.03466797-2.29052734Z"/><path fill="#41ADB0" d="m358.72265625 326.44140625 3.44737244.00706482c2.40148939.00973122 4.80295603.03150361 7.20423889.06446838 3.67832366.0494274 7.35530969.06148266 11.03393555.06713868 2.33399862.0140855 4.66798562.03028972 7.00195312.04882812l3.33668518.01625061 3.10496521.04844666 2.72669983.03224182C399.20198559 327.02286824 400.78991659 327.56804728 403 329c2.05110216 3.07665324 2.25307772 3.73236402 2.2746582 7.20849609l.02888489 2.55917359-.00276184 2.75576782.01298523 2.84341431c.00574391 1.98545525.00624311 3.97093155.00190735 5.95639038-.00315458 3.03324471.02027972 6.06550909.0456543 9.09863281.00227356 1.92968627.00297622 3.85937516.00195312 5.7890625l.02790833 2.74349976C405.35592253 372.77179586 405.19036718 376.11594793 402 380c-2.49283774 1.24641887-4.22340813 1.15396235-7.01293945 1.19287109l-3.16609192.04867554c-4.78040469.04439143-9.56066979.08551217-14.3412323.10855103-2.52288025.0165669-5.04571342.04386618-7.56835938.08203125-3.63346765.05470298-7.26583448.07663358-10.8996582.09130859l-3.41584778.06869507c-4.70985816-.01273233-7.70817936-.06336686-11.80509949-2.50375366-2.54077773-4.38184572-2.50965132-8.03788284-2.45483398-13.02587891l-.01449585-2.90209961c-.00339566-2.02060594.0057834-4.04126707.02670288-6.06176758.02677037-3.08881392.00024095-6.17399411-.03173828-9.26269531.00330416-1.96615384.00971051-3.93230541.01953125-5.8984375l-.03067017-2.79077148c.0757868-4.15650603.37252759-6.59699246 2.50357056-10.23291016 4.86566489-2.91805884 9.34297154-2.57141434 14.91381836-2.47241211Z"/><path fill="#F8BF1B" d="m154.84521484 326.85473633 3.05453491-.0193329 3.31118775-.00337218 3.39297485-.01008606c2.3722594-.00507012 4.74452596-.0074083 7.11679077-.00724792 3.63228102-.00218403 7.26425724-.02033232 10.89648438-.03930664 2.3020823-.00293437 4.60416603-.00491887 6.90625-.00585938l3.29891967-.0217743 3.07363892.00932313 2.70028687-.00431824C201.22553608 327.02319788 202.7888929 327.56471766 205 329c2.05864767 3.08797152 2.25735352 3.79756283 2.30639648 7.30029297l.04844666 2.61984253.01625061 2.822052.02735901 2.91067505c.01451012 2.03251017.02339112 4.06506713.02708435 6.09762573.01189243 3.10610888.06106724 6.2102287.11157226 9.31591797.00946472 1.97525073.01669952 3.95051365.02148438 5.92578125l.05918884 2.80978394c-.02913679 4.17488849-.2831192 6.62168666-2.40855408 10.28201294-4.91330496 2.93340565-9.49206734 2.63099463-15.1154785 2.58007812l-3.5074463.01449585c-2.44430909.00339865-4.88866366-.0058011-7.33288575-.02670288-3.74045205-.0267627-7.47790296-.00024742-11.2182617.03173828-2.37630872-.0033041-4.75261556-.00971033-7.12890626-.01953125l-3.3873291.03067017c-4.6853317-.07069284-7.66243387-.17785217-11.72375489-2.6288147-2.52814223-4.31774924-2.49669079-7.86017786-2.42407226-12.78466797l-.00730896-2.83483887c.00097743-1.97355395.01434631-3.94713568.03929138-5.92053222.03431243-3.01608678.02065287-6.02924303.0012207-9.04541016.00689871-1.92058535.01657132-3.84116316.02929688-5.76171875l-.0150299-2.7244873c.07842865-4.18173136.2243678-6.42514367 2.49183654-10.03918457 3.09863614-2.89915624 4.7927717-3.08259186 8.93481445-3.1003418Z"/><path fill="#2877AB" d="m457.6875 326.37109375 3.44018555-.00730896c2.39725237.00097833 4.79452737.01436825 7.19165039.03929138 3.66777351.03430327 7.33313717.0206572 11.00097656.0012207 2.33073942.00689859 4.66147262.01657107 6.9921875.02929688l3.32104492-.01502991c7.59699589.11742428 7.59699589.11742428 11.53442383 2.49183655 3.54479989 4.04316928 3.01005882 7.93531631 3.03515625 13.07788086l.01727295 2.71318054c.00945595 1.89727088.01598634 3.79455822.01983643 5.69184876.00969201 2.89718475.04070393 5.79365607.07226562 8.69067382.00653143 1.84309475.01178135 3.68619457.015625 5.52929688l.03741455 2.62043762C504.34806206 371.97431106 504.12514932 375.17869483 501 379c-3.26323398 2.17548932-4.24994543 2.26175426-8.03466797 2.30639648l-3.10519409.04844666-3.35232544.01625061-3.44876099.02735901c-2.40914269.01451664-4.81832494.02339273-7.22750854.02708435-3.68540915.01189468-7.36914364.06106843-11.05419922.11157226-2.33983557.00946414-4.67968143.01669922-7.01953125.02148438l-3.34005737.05918884c-4.65127789-.02741872-7.57074865-.11016151-11.61111451-2.53160095-2.56345928-4.379012-2.52560189-8.02827631-2.47070312-13.02368164l-.01449585-2.90209961c-.00339566-2.02060594.0057834-4.04126707.02670288-6.06176758.02677037-3.08881392.00024095-6.17399411-.03173828-9.26269531.00330416-1.96615384.00971051-3.93230541.01953125-5.8984375l-.03067017-2.79077148c.0757906-4.15671485.37034301-6.59472384 2.50576783-10.22851563 4.84998818-2.91734475 9.31636644-2.61438252 14.87646484-2.54711914Z"/><path fill="#F8FBFA" d="M338 152c-2.18308617 4.65017436-4.32260321 8.86939372-7.75 12.75l-1.859375 2.171875c-7.89404092 6.86214014-16.94078568 7.22292561-26.890625 8.203125-1.57269354.16537029-3.14528436.33172013-4.71777344.49902344C292.19037116 176.10636864 287.59571787 176.55623011 283 177l-3.73632812.36816406C272.51525157 178.02268659 265.76785675 178.59007043 259 179l-2.32617188.14160156C248.64097354 179.56796628 242.82819759 179.45923108 236 175v-2c3.80738091-1.94767904 7.6217659-3.88124404 11.4375-5.8125l3.24023438-1.65820312c10.5386015-5.31764296 20.42379998-8.20035693 32.04296874-10.14111329 1.51645876-.25826579 3.03088963-.52874246 4.54296876-.81152343C304.14411421 151.424932 320.9027994 151.68745157 338 152Z"/><path fill="#F7FAF8" d="M28 144c9.37053289 1.33864756 19.75348426 8.62815759 25.5625 15.9765625 3.49682731 5.0742005 3.49682731 5.0742005 3.25 9.0234375L56 171c-6.96352915.37393653-12.92481308-.99104816-19.625-2.8125l-3.0625-.79101562C28.21576507 166.0420371 23.59182979 164.60935038 19 162c.51081661-4.78890574 1.83543902-7.82111869 4.5-11.8125l1.90625-2.89453125C27 145 27 145 28 144Z"/></svg>