<svg viewBox="0 0 570 425" xmlns="http://www.w3.org/2000/svg"><path d="M344.8 23.7h2.6c24 0 47.8.3 71.7 2.1l3.4.3c29.8 2.2 52.9 8 75 29.4l4.7 4.5q14 13.5 24.7 29.8c4.1 5.8 8.9 8.6 15 12.2 9.5 6.2 13 16.4 15.7 27a245 245 0 0 1 3.7 50.6v11.7c.2 42.1.2 42.1-9.2 52.9A19 19 0 0 1 542 250l1-2.4a130 130 0 0 0 7.4-48v-2.2c.1-11.6-.1-24.2-7-34-1.4-1.6-1.4-1.6-4-2.2-3.5 1.2-4.4 2.7-6.4 5.8a91 91 0 0 0-3 9.8l-.8 2.8q-2.3 8.5-4.2 17.2c-2.8 12.4-6.3 26-16.5 34.2a44 44 0 0 1-14 4.5q-11.1 2.4-22.2 5.4l-14.9 3.8-2.8.7-11.5 2.8q-21 5.1-42 11l-3.6 1-2.5.8.7-2.8c4.8-22.9 4.6-49.1-6.6-70-1.1-2.2-1.1-2.2-2.1-5.2-3.4-2.3-7-3-11-3-5 3.4-7.6 7-10.1 12.4l-1 2.2c-7.9 16.6-9.3 34-9.2 52.2v2.3a154 154 0 0 0 4.4 38.1l.9 3.8-26.8.3H332c-5.5 0-9.5-1.2-13.8-4.8a35 35 0 0 1-6.4-10.7l-1-2.7-.8-2.1h-2.4l-34.6.1h-15.7c-7.6.2-13.1-.2-19-5.5l-2.2-2.4c-7.1-7.4-18-9.4-28-9.7H206l-7.3-.3-18.5-.7-21.4-.7-7.4-.3q-12-.4-24-1.3l-16.2-.7-3.5-.2-43.2-1.5c-8.4-.2-8.4-.2-15.5 4l-2.6 2.2-4 3.7c-3.6 2-7.1 1.7-11.1 1.7h-2.4c-6 0-11-.9-15.5-5-10.8-14.5-6.7-48.4-5-66A87 87 0 0 1 40 133a119 119 0 0 1 61.9-24 43 43 0 0 0 30.6-14.5q3.7-3.6 7.5-7l9-8.2A280 280 0 0 1 172 60l1.7-1.3c28.5-21.4 58-31.1 93.5-32.5 3.7-.1 3.7-.1 6.8-.7q8-1 16-1l3.7-.2q25.5-.7 51-.6" fill="#42ABAE"/><path d="M40 296.9h51l134.5-.1h15.2l152.5-.1h106.1c23.6-.2 23.6-.2 33.6 8.1 9.8 10 11.4 20 11.5 33.4l.1 22.1v9.9l.1 3.6a38 38 0 0 1-10 27.7c-11.4 10.2-24.5 10-39 9.9h-445c-14.6 0-25.2-.7-36.3-11-8.2-8.5-9-19.3-8.9-30.6l-.1-31.5v-5.8a37 37 0 0 1 10.6-27 32 32 0 0 1 24.1-8.6M23 318c-4.8 6.4-4.6 12.3-4.6 20v35.4c0 7.2.9 12 5.6 17.6 2 2 2 2 4.1 3.4l2 1.5c4.1 2.5 8.1 2.2 12.7 2.2h32.9l17.6.1 146 .2h2.2l150.9.1h2l81.4.1h21.7c15.1.2 15.1.2 28.1-7 6.1-6.7 5.7-14.4 5.8-22.9v-3.6l.2-26.4v-3.4c0-8-1.6-14-7-19.9-5.6-4.9-10.6-5.7-17.7-5.7H41.1c-7.7 0-13 2.3-18.1 8.3" fill="#43A7AC"/><path fill="black" d="M413 41q-1.1 4.9-3.7 9.2l-1.7 3.2-1.9 3.5A376 376 0 0 0 389.5 92a45 45 0 0 1-10.4 16.9c-4 1.3-8 1.1-12.1 1.1h-92.1l-121.5.1H146c-2.3-.2-4-1-6-2.2-.4-2-.4-2 0-5q2.8-3.6 6.3-6.7l2-2q6.6-6.3 14-12.1l7.2-6.1c14.6-12.6 32.3-26.7 51.5-31l3-.8c56.5-14.8 131.5-10 189-3.2m35.2 1.6h2.3c14.6.4 25.8 8.5 36.2 18.2q3 3 6.4 5.6c15.2 13.4 15.2 13.4 16.3 22a15 15 0 0 1-6 11c-10.7 7.5-25.4 9.8-38.1 12.2l-2.4.4a483 483 0 0 1-52.2 6.4l-2.4.2q-6.2.5-12.3.4c-.2-4.7.5-8 2.2-12.4l1.5-3.7 1.6-4 .8-2c17-42 17-42 34.6-52.5a27 27 0 0 1 11.5-1.8"/><path d="M259.7 326.4h3.4l18.2.1h13.4l2.8.1c3 .5 5 1.6 7.5 3.4 2 3 2.3 3.7 2.3 7.1v8l.2 20.3v2.7c0 4.2-.1 6.3-2.4 10-3.1 2.9-5 3-9.1 3.1h-3.2l-32.8.4-3.4.1c-7.4 0-7.4 0-10.4-1.7-3.5-3.5-3.8-7.5-3.9-12.1V339c0-4.1.4-6.5 2.5-10 4.9-3 9.3-2.7 14.9-2.6" fill="#54BB48"/><path d="M56 326.7h10l25.3-.2h3.4c7.6 0 7.6 0 11.6 2.4 3.5 4 3 8 3 13v2.8l.1 20v2.5c0 4.8-.2 8-3.3 11.8-3.3 2.2-4.2 2.3-8 2.3h-6.5l-3.4.1-25.3.2h-3.4c-8.5 0-8.5 0-11.6-3L46 376l-1-1-.2-8.9v-2.7l-.1-20v-2.6c0-4.8.2-8 3.3-11.8 3.3-2.2 4.2-2.3 8-2.3" fill="#E83C23"/><path d="M358.7 326.4h3.5l18.2.2h13.4l2.8.1c2.6.3 4.2.9 6.4 2.3 2 3 2.3 3.7 2.3 7.2V368c0 4.8-.1 8.1-3.3 12-2.5 1.2-4.2 1.2-7 1.2h-3.2l-32.8.3h-3.4c-4.7 0-7.7 0-11.8-2.4-2.6-4.4-2.5-8-2.5-13v-27c0-4.1.4-6.6 2.5-10.2 4.9-3 9.3-2.6 15-2.5" fill="#41ADB0"/><path d="M154.9 326.9h9.7l25-.1h9c2.6.2 4.2.8 6.4 2.2 2 3 2.3 3.8 2.3 7.3v5.4l.1 3 .2 21.3v2.8c0 4.2-.3 6.6-2.4 10.3-4.9 3-9.5 2.6-15.1 2.6h-32.6c-4.7 0-7.6-.2-11.7-2.6-2.5-4.4-2.5-7.9-2.4-12.8V340c.1-4.2.2-6.4 2.5-10 3.1-3 4.8-3.1 9-3.2" fill="#F8BF1B"/><path d="M457.7 326.4h31.9c7.6.1 7.6.1 11.6 2.5 3.5 4 3 8 3 13v2.8l.1 20v2.5c0 4.8-.2 8-3.3 11.8-3.3 2.2-4.2 2.3-8 2.3h-6.5l-3.4.1-25.3.2h-3.4c-4.6 0-7.6 0-11.6-2.5-2.6-4.4-2.5-8-2.5-13v-27c0-4.1.4-6.5 2.5-10.2 4.9-2.9 9.3-2.6 14.9-2.5" fill="#2877AB"/><path d="M338 152a51 51 0 0 1-7.7 12.8l-2 2.1c-7.8 6.9-16.9 7.2-26.8 8.2L283 177l-3.7.4q-10.2 1-20.3 1.6l-2.3.1c-8 .5-13.9.4-20.7-4.1v-2l11.4-5.8 3.3-1.7a107 107 0 0 1 36.6-11A260 260 0 0 1 338 152" fill="#F8FBFA"/><path d="M28 144a45 45 0 0 1 25.6 16c3.5 5 3.5 5 3.2 9l-.8 2c-7 .4-13-1-19.6-2.8l-3-.8A58 58 0 0 1 19 162c.5-4.8 1.8-7.8 4.5-11.8l2-3C27 145 27 145 28 144" fill="#F7FAF8"/></svg>